<?xml version="1.0" standalone="no"?>
<!DOCTYPE svg PUBLIC "-//W3C//DTD SVG 20010904//EN"
 "http://www.w3.org/TR/2001/REC-SVG-20010904/DTD/svg10.dtd">
<svg version="1.0" xmlns="http://www.w3.org/2000/svg"
 width="1000.000000pt" height="1000.000000pt" viewBox="0 0 1000.000000 1000.000000"
 preserveAspectRatio="xMidYMid meet">
<metadata>
Created by potrace 1.11, written by Peter Selinger 2001-2013
</metadata>
<g transform="translate(0.000000,1000.000000) scale(0.100000,-0.100000)"
fill="#000000" stroke="none">
<path d="M609 7967 c-1 -7 -3 -848 -3 -1869 l-2 -1858 493 0 c271 0 493 3 494
8 0 4 2 311 2 682 l2 675 620 5 620 5 -1 405 c-1 223 -2 408 -3 411 0 3 -272
6 -603 7 -332 0 -610 1 -619 1 -13 1 -15 42 -15 356 l-1 355 724 0 c571 0 723
3 724 13 1 15 1 800 0 809 -1 3 -548 6 -1216 6 -923 0 -1215 -2 -1216 -11z"/>
<path d="M3684 6110 l0 -1870 493 0 c387 0 493 3 494 13 0 6 1 272 1 590 1
317 4 577 7 578 3 1 132 2 286 4 272 2 330 6 445 26 107 18 115 20 132 25 10
3 29 7 42 10 100 18 318 109 422 176 100 65 114 75 180 134 197 177 324 423
371 719 15 98 9 413 -11 510 -73 362 -259 612 -571 768 -122 61 -258 108 -375
131 -14 2 -49 9 -77 15 -168 33 -286 38 -1083 39 l-756 2 0 -1870z m1516 1071
c287 -52 414 -202 403 -475 -11 -285 -173 -461 -453 -491 -48 -5 -314 -9 -436
-6 l-41 1 0 488 c0 268 4 489 8 492 15 11 455 3 519 -9z"/>
<path d="M7189 7977 c-1 -1 -2 -842 -3 -1869 l-2 -1868 1203 0 1203 0 0 415 0
415 -708 0 -709 0 -1 1438 c0 790 -1 1445 -1 1454 -1 16 -37 17 -491 17 -269
-1 -491 -1 -491 -2z"/>
<path d="M1104 3804 c-253 -53 -421 -229 -430 -452 -6 -167 72 -313 218 -405
61 -38 69 -42 282 -132 239 -100 272 -127 270 -215 -2 -91 -64 -138 -193 -147
-124 -9 -263 37 -382 127 l-52 39 -104 -126 c-120 -145 -121 -130 3 -212 90
-60 205 -109 314 -132 105 -22 295 -19 385 5 249 68 407 252 407 476 0 117
-22 197 -76 271 -70 95 -137 136 -395 239 -240 95 -282 122 -299 186 -12 47
-3 83 32 118 45 44 107 60 204 53 86 -6 156 -30 246 -84 l59 -36 19 24 c11 13
36 44 56 68 78 94 102 126 102 139 0 6 -28 33 -62 58 -176 130 -397 181 -604
138z"/>
<path d="M8859 3815 c-2 -2 -21 -6 -41 -9 -110 -17 -248 -94 -322 -178 -81
-92 -115 -188 -111 -313 5 -154 73 -272 210 -363 33 -22 152 -79 265 -127 268
-113 294 -134 293 -226 -1 -91 -65 -139 -193 -147 -122 -7 -266 40 -375 124
-25 19 -49 34 -55 34 -5 0 -55 -55 -111 -121 l-102 -122 44 -38 c328 -281 892
-258 1093 46 128 192 99 458 -66 600 -62 52 -110 77 -307 156 -220 89 -262
110 -295 149 -25 30 -28 38 -29 78 -2 95 98 151 248 139 86 -8 160 -33 233
-82 30 -19 57 -35 61 -35 4 0 48 51 99 114 l91 115 -57 45 c-70 56 -195 119
-282 142 -56 15 -281 30 -291 19z"/>
<path d="M2550 3635 l0 -155 225 0 225 0 0 -660 0 -660 23 0 c12 0 95 -2 185
-3 l162 -2 0 663 0 662 224 0 225 0 0 155 0 155 -634 0 -635 0 0 -155z"/>
<path d="M4871 3715 c-12 -41 -22 -78 -22 -82 -1 -5 -7 -24 -14 -43 -8 -19
-37 -109 -65 -200 -28 -91 -62 -196 -75 -235 -76 -230 -308 -986 -303 -990 6
-7 359 -7 366 -1 4 5 10 26 72 263 l32 122 248 0 249 -1 10 -46 c6 -26 28
-112 49 -192 l39 -145 79 -5 c43 -3 131 -4 195 -2 l117 3 -13 42 c-17 55 -73
234 -250 797 -164 519 -245 780 -245 786 0 2 -101 4 -223 4 l-224 0 -22 -75z
m288 -390 c22 -93 59 -237 81 -320 22 -82 40 -155 40 -160 0 -6 -62 -10 -170
-10 -114 0 -170 4 -170 11 0 6 7 33 14 60 8 27 17 60 20 74 3 14 14 59 26 100
17 63 34 132 76 315 3 11 6 25 8 30 2 6 6 27 11 48 4 21 11 35 15 30 4 -4 26
-84 49 -178z"/>
<path d="M6342 3635 l1 -155 223 0 224 0 0 -660 0 -659 78 -3 c42 -2 125 -2
185 0 l107 3 0 660 0 659 225 0 225 0 0 155 0 155 -634 0 -634 0 0 -155z"/>
</g>
</svg>
